<svg width="30" height="31" viewBox="0 0 30 31" fill="none" xmlns="http://www.w3.org/2000/svg">
<g clip-path="url(#clip0_2_1215)">
<path d="M2.02071 15.529C2.05934 13.0954 2.65809 10.9128 3.81697 8.98136C4.93722 7.01127 6.48239 5.4661 8.45249 4.34585C10.3839 3.18697 12.5665 2.58822 15.0001 2.54959C17.4338 2.58822 19.6163 3.18697 21.5478 4.34585C23.5179 5.4661 25.0631 7.01127 26.1833 8.98136C27.3422 10.9128 27.941 13.0954 27.9796 15.529V23.873C27.941 24.6455 27.6706 25.3022 27.1684 25.843C26.6276 26.3839 25.9709 26.6543 25.1983 26.6543H20.3889C19.9254 25.4954 19.0562 24.8773 17.7815 24.8001H14.073C13.3005 24.8387 12.6438 25.1091 12.103 25.6113C11.6008 26.1521 11.3304 26.8088 11.2917 27.5814C11.3304 28.3539 11.6008 29.0106 12.103 29.5515C12.6438 30.0536 13.3005 30.324 14.073 30.3627H17.7815C19.0562 30.2854 19.9254 29.6673 20.3889 28.5085H25.1983C26.5117 28.4698 27.6126 28.0256 28.5011 27.1758C29.3509 26.2873 29.7952 25.1863 29.8338 23.873V15.529C29.7952 12.7477 29.1192 10.2561 27.8058 8.05426C26.4924 5.81376 24.7154 4.03681 22.4749 2.72342C20.273 1.41002 17.7815 0.734011 15.0001 0.695381C12.2188 0.734011 9.72725 1.41002 7.52538 2.72342C5.28488 4.03681 3.50794 5.81376 2.19454 8.05426C0.881146 10.2561 0.205133 12.7477 0.166504 15.529V18.3103C0.205133 18.8898 0.514167 19.1988 1.09361 19.2374C1.67305 19.1988 1.98208 18.8898 2.02071 18.3103V15.529ZM18.7086 27.5814C18.6699 28.1608 18.3609 28.4698 17.7815 28.5085H14.073C13.4936 28.4698 13.1846 28.1608 13.1459 27.5814C13.1846 27.0019 13.4936 26.6929 14.073 26.6543H17.7815C18.3609 26.6929 18.6699 27.0019 18.7086 27.5814ZM8.51043 13.6748H9.43753V21.0916H8.51043C7.73784 21.053 7.08115 20.7826 6.54034 20.2804C6.03816 19.7396 5.76775 19.0829 5.72912 18.3103V16.4561C5.76775 15.6835 6.03816 15.0268 6.54034 14.486C7.08115 13.9839 7.73784 13.7134 8.51043 13.6748ZM3.87492 16.4561V18.3103C3.91354 19.6237 4.35778 20.7247 5.20763 21.6131C6.0961 22.463 7.19703 22.9072 8.51043 22.9458H9.43753C9.97834 22.9458 10.4226 22.772 10.7702 22.4244C11.1179 22.0767 11.2917 21.6325 11.2917 21.0916V13.6748C11.2917 13.134 11.1179 12.6898 10.7702 12.3421C10.4226 11.9944 9.97834 11.8206 9.43753 11.8206H8.51043C7.19703 11.8592 6.0961 12.3035 5.20763 13.1533C4.35778 14.0418 3.91354 15.1427 3.87492 16.4561ZM20.5628 13.6748H21.4899C22.2625 13.7134 22.9192 13.9839 23.46 14.486C23.9621 15.0268 24.2325 15.6835 24.2712 16.4561V18.3103C24.2325 19.0829 23.9621 19.7396 23.46 20.2804C22.9192 20.7826 22.2625 21.053 21.4899 21.0916H20.5628V13.6748ZM21.4899 11.8206H20.5628C20.022 11.8206 19.5777 11.9944 19.2301 12.3421C18.8824 12.6898 18.7086 13.134 18.7086 13.6748V21.0916C18.7086 21.6325 18.8824 22.0767 19.2301 22.4244C19.5777 22.772 20.022 22.9458 20.5628 22.9458H21.4899C22.8033 22.9072 23.9042 22.463 24.7927 21.6131C25.6425 20.7247 26.0868 19.6237 26.1254 18.3103V16.4561C26.0868 15.1427 25.6425 14.0418 24.7927 13.1533C23.9042 12.3035 22.8033 11.8592 21.4899 11.8206Z" fill="white"/>
</g>
<defs>
<clipPath id="clip0_2_1215">
<rect width="30" height="31" fill="white" transform="matrix(1 0 0 -1 0 31)"/>
</clipPath>
</defs>
</svg>
