<svg width="30" height="31" viewBox="0 0 30 31" fill="none" xmlns="http://www.w3.org/2000/svg">
<path d="M4.80202 2.54955C3.48862 2.58817 2.38769 3.03241 1.49921 3.88226C0.64937 4.77073 0.205133 5.87166 0.166504 7.18506V23.8729C0.205133 25.1863 0.64937 26.2872 1.49921 27.1757C2.38769 28.0256 3.48862 28.4698 4.80202 28.5084H25.1983C26.5117 28.4698 27.6126 28.0256 28.5011 27.1757C29.3509 26.2872 29.7952 25.1863 29.8338 23.8729V10.8935C29.7952 9.58007 29.3509 8.47914 28.5011 7.59067C27.6126 6.74082 26.5117 6.29659 25.1983 6.25796H6.65622C6.07678 6.29659 5.76775 6.60562 5.72912 7.18506C5.76775 7.7645 6.07678 8.07353 6.65622 8.11216H25.1983C25.9709 8.15079 26.6276 8.4212 27.1684 8.92338C27.6706 9.46419 27.941 10.1209 27.9796 10.8935V23.8729C27.941 24.6455 27.6706 25.3022 27.1684 25.843C26.6276 26.3452 25.9709 26.6156 25.1983 26.6542H4.80202C4.02943 26.6156 3.37273 26.3452 2.83192 25.843C2.32974 25.3022 2.05934 24.6455 2.02071 23.8729V7.18506C2.05934 6.41247 2.32974 5.75578 2.83192 5.21497C3.37273 4.71279 4.02943 4.44238 4.80202 4.40375H27.0525C27.6319 4.36512 27.941 4.05609 27.9796 3.47665C27.941 2.89721 27.6319 2.58817 27.0525 2.54955H4.80202ZM22.417 18.7738C23.2668 18.6966 23.7304 18.233 23.8076 17.3832C23.7304 16.5333 23.2668 16.0698 22.417 15.9925C21.5671 16.0698 21.1036 16.5333 21.0263 17.3832C21.1036 18.233 21.5671 18.6966 22.417 18.7738Z" fill="white"/>
</svg>
